<?xml version="1.0" encoding="UTF-8" standalone="no"?>
<svg
   t="1718224910236"
   class="icon"
   viewBox="0 0 1310.72 1310.72"
   version="1.1"
   p-id="3417"
   width="256"
   height="256"
   id="svg8"
   xml:space="preserve"
   xmlns="http://www.w3.org/2000/svg"
   xmlns:svg="http://www.w3.org/2000/svg"><defs
     id="defs8" /><path
     d="m 421.53072,959.08176 c -23.468,0 -52.562,16.438 -64.624,36.56 l -20.094,33.50004 c -12.094,20.124 -2.75,36.562 20.718,36.562 h 469.3 c 23.498,0 32.81,-16.438 20.748,-36.562 l -20.124,-33.50004 c -12.062,-20.124 -41.124,-36.56 -64.624,-36.56 z"
     fill="#a0d468"
     p-id="3419"
     id="path2" /><path
     d="m 720.21072,1044.3918 c 11.75,0 21.312,9.562 21.312,21.312 h -42.688 c 0,-11.75 9.564,-21.312 21.376,-21.312 z m -85.372,0 c 11.81,0 21.374,9.562 21.374,21.312 h -42.686 c 0,-11.75 9.562,-21.312 21.312,-21.312 z m -85.31,0 c 11.78,0 21.312,9.562 21.312,21.312 h -42.624 c -0.002,-11.75 9.53,-21.312 21.312,-21.312 z m -85.312,0 c 11.75,0 21.312,9.562 21.312,21.312 h -42.686 c 0,-11.75 9.562,-21.312 21.374,-21.312 z m 149.31,-682.65604 c 0,11.782 -9.562,21.342 -21.312,21.342 -11.812,0 -21.376,-9.562 -21.376,-21.342 0,-11.78 9.562,-21.342 21.376,-21.342 11.75,0 21.312,9.562 21.312,21.342 z"
     fill="#8cc153"
     p-id="3420"
     id="path3" /><path
     d="m 98.476719,582.38776 c 90.060001,-110.78 201.246001,0 201.246001,0 l -3.876,92.904 c 0,0 -94.06,-98.53 -125.528,-36.218 -31.468,62.326 125.528,146.636 125.528,146.636 l 3.876,88.124 c -0.002,0 -294.5580011,-176.81 -201.246001,-291.446 z m 794.948001,257.76 c 4,4.374 9.656,6.874 15.594,6.936 h 1.282 c 80.498,0 139.68398,-48.31 171.15198,-139.746 22.468,-65.294 22.75,-129.574 22.75,-132.262 0,-11.032 -8.406,-20.218 -19.376,-21.25 -0.624,-0.062 -16,-1.468 -29.468,-1.468 -10.062,0 -16.844,0.75 -21.968,2.5 -8.812,2.938 -13.562,9.5 -26.31,27.032 -10.24998,14.156 -24.31198,33.5 -39.49798,48.936 -19.876,20.156 -31.312,23.156 -36.376,23.156 a 11.7,11.7 0 0 1 -3.5,-0.532 c -6.218,-2.032 -13,-1.062 -18.438,2.562 -5.438,3.624 -8.876,9.532 -9.406,16.032 l -12,151.98 a 21.26,21.26 0 0 0 5.562,16.124 z"
     fill="#ccd1d9"
     p-id="3421"
     id="path4" /><path
     d="m 357.53272,491.42176 v -44.342 h 469.3 v 44.342 c 50.936,29.624 85.374,84.81 85.374,147.652 v 192.012 c 0,93.874 -76.81,170.62004 -170.684,170.62004 h -298.68 c -93.842,0 -170.622,-76.74604 -170.622,-170.62004 v -192.012 c 0.002,-62.842 34.376,-118.028 85.312,-147.652 z"
     fill="#e6e9ed"
     p-id="3422"
     id="path5" /><path
     d="m 869.51872,831.08576 v -192.012 c 0,-62.842 -34.436,-118.028 -85.308,-147.652 v -44.342 h 42.624 v 44.342 c 50.934,29.624 85.372,84.81 85.372,147.652 v 192.012 c 0,93.874 -76.81,170.62004 -170.684,170.62004 h -42.688 c 93.876,0 170.684,-76.74804 170.684,-170.62004 z"
     fill="#ffffff"
     opacity="0.3"
     p-id="3423"
     id="path6" /><path
     d="m 357.53272,491.42176 h 469.3 c 0,0 -11.032,-129.684 -233.682,-129.684 -222.682,-0.002 -235.618,129.684 -235.618,129.684 z"
     fill="#a0d468"
     p-id="3424"
     id="path7" /><path
     d="m 342.43872,453.32776 a 21.296,21.296 0 0 1 15.094,-6.25 h 469.3 c 5.5,0 10.938,2.094 15.124,6.25 8.31,8.312 8.31,21.842 0,30.156 a 21.288,21.288 0 0 1 -15.124,6.25 h -469.3 a 21.216,21.216 0 0 1 -15.094,-6.25 c -8.344,-8.312 -8.344,-21.844 0,-30.156 z"
     fill="#8cc153"
     p-id="3425"
     id="path8" /><g
     id="g8"
     transform="matrix(0.23740832,0,0,0.23740832,531.36682,660.30487)"><path
       d="m 306.3937,745.82677 c 0,0 -477.73228,48.37795 -239.874015,-600.69291 0,0 217.700785,-18.14173 322.519685,70.55118 l 4.0315,330.58268 z"
       fill="#aee1d4"
       p-id="8176"
       id="path1-3" /><path
       d="M 907.08661,26.204724 A 60.472441,60.472441 0 0 0 868.7874,4.031496 C 852.66142,2.015748 483.77953,-44.346457 274.14173,260.0315 A 417.25984,417.25984 0 0 0 215.68504,643.02362 C 256,759.93701 350.74016,856.69291 453.54331,888.94488 a 653.10236,653.10236 0 0 0 181.41732,26.20473 425.32283,425.32283 0 0 0 237.85827,-64.50394 c 96.7559,-64.50394 153.1968,-173.35433 167.3071,-320.50394 4.0315,-14.11023 32.252,-300.34645 -133.03939,-503.937006 z"
       fill="#3cb696"
       p-id="8177"
       id="path2-6" /><path
       d="m 435.40157,1024 h -2.01574 a 60.472441,60.472441 0 0 1 -58.4567,-62.48819 c 0,-8.06299 10.07874,-213.66929 82.64567,-346.70866 50.3937,-92.72441 78.61418,-122.96063 86.67717,-131.02362 a 60.472441,60.472441 0 0 1 84.66142,84.66141 612.7874,612.7874 0 0 0 -66.51969,102.80315 c -60.47244,108.8504 -68.53543,290.26772 -68.53543,292.28347 A 60.472441,60.472441 0 0 1 435.40157,1024 Z"
       fill="#aee1d4"
       p-id="8178"
       id="path3-7" /></g><text
     xml:space="preserve"
     style="font-size:436.907px;font-family:'Sarasa Term SC';-inkscape-font-specification:'Sarasa Term SC';fill:#c8c8c8;fill-opacity:1;stroke-width:5.12;stroke-linecap:round;stroke-linejoin:round"
     x="1001.09"
     y="518.11121"
     id="text8"><tspan
       id="tspan8"
       style="font-style:normal;font-variant:normal;font-weight:bold;font-stretch:normal;font-size:436.907px;font-family:'Comic Sans MS';-inkscape-font-specification:'Comic Sans MS Bold';fill:#c8c8c8;fill-opacity:1;stroke-width:5.12"
       x="1001.09"
       y="518.11121">?</tspan></text></svg>
